<svg xmlns="http://www.w3.org/2000/svg" width="600" height="519" fill="none"><rect width="244.21" height="243.1" fill="#FAFAFA" rx="36.19" transform="rotate(74.64 118.26 185.06)skewX(.04)"/><rect width="291.88" height="291.88" fill="#E5EEFF" rx="43.42" transform="rotate(-73.79 321.93 69.1)skewX(.06)"/><g filter="url(#a)"><path fill="#fff" d="M141.88 117.2a6.32 6.32 0 0 1 4.95-7.42l210.76-42.5a6.28 6.28 0 0 1 7.4 4.94l53.73 270.1a6.32 6.32 0 0 1-4.95 7.42l-210.76 42.5a6.28 6.28 0 0 1-7.4-4.94z"/><path stroke="#DDD" stroke-width="3.15" d="M143.43 116.9a4.74 4.74 0 0 1 3.7-5.58l210.76-42.5a4.71 4.71 0 0 1 5.56 3.7l53.73 270.1a4.74 4.74 0 0 1-3.72 5.57l-210.75 42.5a4.71 4.71 0 0 1-5.56-3.7l-53.72-270.1Z"/></g><path fill="#E8E8E8" d="M168.87 154.58c-.2-.97.43-1.9 1.4-2.1l138.97-28.03a1.79 1.79 0 0 1 .7 3.5l-138.98 28.03c-.96.2-1.9-.44-2.1-1.4Zm85.83 130.77c-.2-1.02.46-2.01 1.47-2.22l95.67-19.29c1.02-.2 2 .46 2.21 1.47.2 1.02-.46 2.01-1.47 2.22l-95.67 19.29c-1.02.2-2-.45-2.21-1.47M170.72 163.9c-.19-.96.44-1.9 1.4-2.1l154.5-31.15a1.79 1.79 0 0 1 .7 3.5l-154.5 31.16c-.97.19-1.9-.44-2.1-1.4Zm85.81 130.66a1.5 1.5 0 0 1 1.18-1.77l112.6-22.7a1.5 1.5 0 0 1 1.76 1.17 1.5 1.5 0 0 1-1.18 1.77l-112.6 22.7a1.5 1.5 0 0 1-1.76-1.17m-83.8-120.54c-.19-.97.44-1.91 1.4-2.1l111.8-22.55a1.79 1.79 0 0 1 .7 3.5l-111.8 22.54c-.97.2-1.9-.43-2.1-1.4Zm85.82 130.68c-.2-.97.43-1.91 1.4-2.11l111.8-22.54a1.79 1.79 0 0 1 .7 3.5l-111.8 22.54c-.97.2-1.91-.43-2.1-1.4Zm-79.94-101.14c-.2-.96.43-1.9 1.4-2.1l181.68-36.63a1.79 1.79 0 0 1 .7 3.5L180.7 204.96c-.97.2-1.9-.43-2.1-1.4Zm28.3 142.28c-.2-.97.44-1.91 1.4-2.1l181.68-36.64a1.79 1.79 0 0 1 .7 3.5L209 347.23c-.96.2-1.9-.43-2.09-1.4Zm-26.67-134.11c-.2-.97.43-1.9 1.4-2.1l173.9-35.07a1.79 1.79 0 0 1 .7 3.5l-173.91 35.06c-.97.2-1.9-.43-2.1-1.4ZM208.53 354c-.19-.97.44-1.9 1.4-2.1l173.92-35.07a1.79 1.79 0 0 1 .7 3.5L210.62 355.4c-.97.2-1.9-.43-2.1-1.4Zm-26.67-134.1c-.2-.97.43-1.91 1.4-2.1l177.8-35.86a1.79 1.79 0 0 1 .7 3.5l-177.8 35.85c-.97.2-1.9-.43-2.1-1.4Zm28.3 142.27c-.2-.97.43-1.91 1.4-2.1l177.8-35.86c.96-.2 1.9.43 2.09 1.4.19.96-.44 1.9-1.4 2.1l-177.8 35.85c-.96.2-1.9-.43-2.1-1.4Zm-26.68-134.11c-.19-.97.44-1.91 1.4-2.1l177.8-35.86a1.79 1.79 0 0 1 .7 3.5l-177.8 35.85c-.97.2-1.9-.43-2.1-1.4Zm1.62 8.16c-.19-.97.44-1.9 1.4-2.1l166.15-33.5a1.79 1.79 0 0 1 .7 3.5l-166.15 33.5c-.96.2-1.9-.43-2.1-1.4m1.63 8.16c-.2-.96.44-1.9 1.4-2.1l166.15-33.5a1.79 1.79 0 0 1 .7 3.5l-166.16 33.5c-.96.2-1.9-.43-2.09-1.4m1.62 8.17c-.19-.97.44-1.9 1.4-2.1l166.15-33.5c.97-.2 1.9.42 2.1 1.39.19.97-.44 1.9-1.4 2.1l-166.15 33.5c-.96.2-1.9-.43-2.1-1.4Zm1.63 8.16c-.2-.96.43-1.9 1.4-2.1l166.15-33.5a1.79 1.79 0 0 1 .7 3.5l-166.16 33.5c-.96.2-1.9-.43-2.1-1.4Zm61.46 8.23c-.2-.96.43-1.9 1.4-2.1l76.86-15.5a1.79 1.79 0 0 1 .7 3.5l-76.87 15.5c-.96.2-1.9-.43-2.1-1.4Zm8.68 43.68c-.2-1.02.46-2.01 1.48-2.22l88.3-17.8c1.03-.2 2.01.45 2.22 1.47.2 1.01-.46 2-1.48 2.21l-88.3 17.8c-1.02.21-2.01-.44-2.22-1.46m-7.06-35.52c-.2-.96.44-1.9 1.4-2.1l76.86-15.5a1.79 1.79 0 0 1 .7 3.5l-76.86 15.5c-.97.2-1.9-.43-2.1-1.4"/><rect width="190.45" height="7.74" fill="#05F" rx="3.87" transform="rotate(-11.4 746.65 -754.52)skewX(-.15)"/><rect width="100.63" height="59.35" fill="#F23030" rx="8.61" transform="rotate(-11.14 1524.8 -563.1)skewX(.04)"/><path fill="#fff" d="m158.67 326.76-5.97-30.28 10.4-2.05c1.67-.33 3.27-.47 4.79-.42 1.52.02 2.9.31 4.13.88a7.8 7.8 0 0 1 3.15 2.51 10 10 0 0 1 1.88 4.4c.35 1.77.33 3.37-.07 4.8a8.86 8.86 0 0 1-1.92 3.7 11.2 11.2 0 0 1-3.4 2.6 17 17 0 0 1-4.43 1.5l-3.76.75 2.03 10.26zm3.73-17.05 3.34-.66c3.72-.73 5.26-2.7 4.62-5.93-.3-1.57-1.02-2.6-2.14-3.05s-2.61-.5-4.47-.13l-3.16.63 1.8 9.14Zm23.94 11.59-5.98-30.28 8.54-1.69c2.33-.45 4.47-.57 6.45-.35 1.97.22 3.75.82 5.32 1.8 1.57.94 2.9 2.29 3.98 4.03a19.5 19.5 0 0 1 2.4 6.53q.765 3.9.27 6.99a13 13 0 0 1-2.07 5.38 12.8 12.8 0 0 1-4.15 3.71 18.8 18.8 0 0 1-5.85 2.12zm5.73-6.87 1.3-.26c1.3-.26 2.44-.66 3.43-1.2a6.8 6.8 0 0 0 2.37-2.17c.6-.92.97-2.04 1.13-3.35.19-1.33.1-2.9-.26-4.73a13.7 13.7 0 0 0-1.54-4.38 7.1 7.1 0 0 0-2.3-2.58q-1.335-.9-3-1.05c-1.11-.1-2.32-.02-3.62.23l-1.3.26 3.8 19.23Zm23.74 1.05-5.97-30.28 19.09-3.76 1.13 5.75-12.26 2.42 1.39 7.02 10.5-2.07 1.13 5.75-10.5 2.08 2.32 11.75z"/><path fill="#FF5975" fill-rule="evenodd" d="M509.8 439.06a1.32 1.32 0 0 1-1.86-1.87l2.8-2.8a1.32 1.32 0 0 1 1.87 1.87l-2.8 2.8Zm-8.41-2.8a1.32 1.32 0 0 1 1.87-1.87l2.8 2.8a1.32 1.32 0 1 1-1.87 1.88zm6.54 6.55a1.32 1.32 0 1 1 1.87-1.88l2.8 2.81a1.32 1.32 0 0 1-1.86 1.87l-2.8-2.8Zm-6.54 2.8c.51.52 1.35.52 1.87 0l2.8-2.8a1.32 1.32 0 1 0-1.87-1.88l-2.8 2.81a1.32 1.32 0 0 0 0 1.87m2.41-378.55a1.32 1.32 0 1 1-1.86-1.87l2.8-2.8a1.32 1.32 0 1 1 1.87 1.87l-2.8 2.8Zm-8.41-2.8a1.32 1.32 0 0 1 1.87-1.87l2.8 2.8a1.32 1.32 0 1 1-1.87 1.87zm6.54 6.55a1.32 1.32 0 1 1 1.87-1.87l2.8 2.8a1.32 1.32 0 0 1-1.86 1.87l-2.8-2.8Zm-6.54 2.8c.51.52 1.35.52 1.87 0l2.8-2.8a1.32 1.32 0 1 0-1.87-1.87l-2.8 2.8a1.32 1.32 0 0 0 0 1.87" clip-rule="evenodd"/><path fill="#3D99F5" fill-rule="evenodd" d="M470 452a6 6 0 1 1-12 0 6 6 0 0 1 12 0m-9 0a3 3 0 1 0 6 0 3 3 0 0 0-6 0m-353-24a6 6 0 1 1-12 0 6 6 0 0 1 12 0m-9 0a3 3 0 1 0 6 0 3 3 0 0 0-6 0" clip-rule="evenodd"/><path fill="#FFB700" d="m448.29 172.43-13.4 70.46a6.14 6.14 0 0 1-2.99 4.2l-.22.15a6.67 6.67 0 0 1-4.48.7l-115.7-22.01a6.65 6.65 0 0 1-4.04-2.5 6.17 6.17 0 0 1-1.27-5.01l13.4-70.46a6 6 0 0 1 2.53-3.88 6 6 0 0 1 1.87-1 6.8 6.8 0 0 1 3.28-.17l115.72 22a7.02 7.02 0 0 1 4.4 2.96 6.33 6.33 0 0 1 .9 4.56"/><path fill="#E6A500" d="M447.4 167.86c-.56.46-71.82 36.46-71.82 36.46L322.1 144.1l.03-.02v-.03l67.93-35.26a5.86 5.86 0 0 1 7.08 1.35l50.25 57.73Z"/><path fill="#FAFAFA" d="m440.35 132.93-8.12 42.72-56.65 28.67-42.2-47.52 8.12-42.67z"/><path fill="#E6A500" d="m371.02 199.5-7.03-7.95-56.89 31.06c.02 1.11 1.4 2.2 2.07 2.6l61.85-25.7Zm10.12 2.2 9.46-4.81 41.52 49.77c-.43 1.02-2.1 1.53-2.88 1.66z" opacity=".8"/><path fill="#3D99F5" fill-rule="evenodd" d="M394.17 157.85a7.53 7.53 0 1 0-6.37-6.3l-12.53 4.19a7.51 7.51 0 0 0-14.1 2.48 7.53 7.53 0 0 0 12.85 6.31l10.86 7.51a7.52 7.52 0 1 0 1.43-2.06l-10.86-7.51a7.53 7.53 0 0 0 .62-4.35l12.52-4.18a7.52 7.52 0 0 0 5.58 3.9Zm-285.35-19.56a23.82 23.82 0 1 0 0-47.64 23.82 23.82 0 0 0 0 47.64" clip-rule="evenodd"/><path fill="#fff" fill-rule="evenodd" d="M109.26 115.66a5.42 5.42 0 1 1 0-10.85 5.42 5.42 0 0 1 0 10.84Zm0-.55a4.88 4.88 0 1 0 0-9.75 4.88 4.88 0 0 0 0 9.75m0 1.63c-4.34 0-8.68 3.8-8.68 8.67h-.54a9.14 9.14 0 0 1 9.22-9.21c4.88 0 9.21 3.8 9.21 9.21h-.54c0-4.88-4.34-8.67-8.67-8.67" clip-rule="evenodd"/><path fill="#fff" d="M100.58 125.41v.65h.65v-.65zm-.54 0h-.64v.65h.64zm18.43 0v.65h.65v-.65zm-.54 0h-.64v.65h.64zm-14.74-15.18a6.06 6.06 0 0 0 6.07 6.07V115a4.78 4.78 0 0 1-4.78-4.78h-1.29Zm6.07-6.06a6.07 6.07 0 0 0-6.07 6.06h1.3a4.78 4.78 0 0 1 4.77-4.77v-1.3Zm6.06 6.06a6.07 6.07 0 0 0-6.06-6.06v1.29a4.78 4.78 0 0 1 4.78 4.77zm-6.06 6.07a6.06 6.06 0 0 0 6.06-6.07h-1.28a4.78 4.78 0 0 1-4.78 4.78zm4.23-6.07c0 2.34-1.9 4.24-4.23 4.24v1.29a5.52 5.52 0 0 0 5.52-5.53zm-4.23-4.23c2.34 0 4.23 1.9 4.23 4.23h1.29a5.52 5.52 0 0 0-5.52-5.52zm-4.24 4.23c0-2.34 1.9-4.23 4.24-4.23v-1.29a5.52 5.52 0 0 0-5.53 5.52h1.3Zm4.24 4.24a4.23 4.23 0 0 1-4.24-4.24h-1.29a5.52 5.52 0 0 0 5.53 5.53v-1.3Zm-8.03 10.94c0-4.5 4.02-8.03 8.03-8.03v-1.28c-4.67 0-9.32 4.05-9.32 9.31zm-1.19.65h.54v-1.3h-.54zm9.22-10.5a9.78 9.78 0 0 0-9.86 9.85h1.28a8.5 8.5 0 0 1 8.58-8.57v-1.29Zm9.86 9.85c0-5.8-4.65-9.86-9.86-9.86v1.29a8.5 8.5 0 0 1 8.57 8.57zm-1.19.65h.54v-1.3h-.54zm-8.67-8.68c4 0 8.03 3.53 8.03 8.03h1.28c0-5.26-4.65-9.31-9.31-9.31z"/><path fill="#0FC0C5" fill-rule="evenodd" d="M91.5 180a16.5 16.5 0 1 0 0-33 16.5 16.5 0 0 0 0 33" clip-rule="evenodd"/><path fill="#fff" fill-rule="evenodd" d="M91.8 164.32a3.76 3.76 0 1 1 0-7.5 3.76 3.76 0 0 1 0 7.5m0-.38a3.38 3.38 0 1 0 0-6.75 3.38 3.38 0 0 0 0 6.75m0 1.13c-3 0-6 2.63-6 6.01h-.38c0-3.76 3-6.38 6.38-6.38a6.33 6.33 0 0 1 6.39 6.38h-.38c0-3.38-3-6-6-6Z" clip-rule="evenodd"/><path fill="#fff" d="M85.8 171.08v.45h.44v-.45zm-.38 0h-.45v.45h.45zm12.77 0v.45h.44v-.45zm-.38 0h-.44v.45h.44zm-10.2-10.51a4.2 4.2 0 0 0 4.2 4.2v-.9a3.31 3.31 0 0 1-3.32-3.3h-.89Zm4.2-4.2a4.2 4.2 0 0 0-4.2 4.2h.88a3.31 3.31 0 0 1 3.31-3.31v-.9Zm4.2 4.2a4.2 4.2 0 0 0-4.2-4.2v.89c1.82 0 3.3 1.48 3.3 3.3h.9Zm-4.2 4.2a4.2 4.2 0 0 0 4.2-4.2h-.9c0 1.82-1.48 3.3-3.3 3.3zm2.93-4.2a2.93 2.93 0 0 1-2.94 2.93v.9a3.83 3.83 0 0 0 3.83-3.84h-.9Zm-2.94-2.94a2.93 2.93 0 0 1 2.94 2.94h.89a3.83 3.83 0 0 0-3.83-3.83v.9Zm-2.93 2.94a2.93 2.93 0 0 1 2.93-2.94v-.9a3.83 3.83 0 0 0-3.82 3.84zm2.93 2.93a2.93 2.93 0 0 1-2.93-2.94h-.9a3.83 3.83 0 0 0 3.83 3.83v-.9Zm-5.56 7.58a5.73 5.73 0 0 1 5.56-5.56v-.9a6.62 6.62 0 0 0-6.45 6.46h.9Zm-.82.45h.38v-.9h-.38zm6.38-7.28a6.78 6.78 0 0 0-6.83 6.83h.9c0-3.5 2.78-5.94 5.93-5.94zm6.83 6.83a6.78 6.78 0 0 0-6.83-6.83v.9a5.88 5.88 0 0 1 5.94 5.93h.9Zm-.82.45h.38v-.9h-.38zm-6-6.01a5.73 5.73 0 0 1 5.56 5.56h.89a6.62 6.62 0 0 0-6.46-6.45v.89Z"/><path fill="#FF5975" fill-rule="evenodd" d="M153.9 208.8a30.9 30.9 0 1 0 0-61.8 30.9 30.9 0 0 0 0 61.8" clip-rule="evenodd"/><path fill="#fff" fill-rule="evenodd" d="M153.7 178.65a7.45 7.45 0 1 1 0-14.91 7.45 7.45 0 0 1 0 14.9Zm0-.75a6.7 6.7 0 1 0 0-13.42 6.7 6.7 0 0 0 0 13.42m0 2.24c-5.97 0-11.93 5.22-11.93 11.92h-.75c0-7.45 5.97-12.67 12.68-12.67 6.7 0 12.67 5.22 12.67 12.67h-.75c0-6.7-5.96-11.92-11.92-11.92" clip-rule="evenodd"/><path fill="#fff" d="M141.77 192.06v.65h.64v-.65zm-.75 0h-.64v.65h.65v-.65Zm25.35 0v.65h.64v-.65zm-.75 0h-.64v.65h.64zM145.6 171.2a8.1 8.1 0 0 0 8.1 8.1V178a6.81 6.81 0 0 1-6.81-6.8h-1.3Zm8.1-8.1a8.1 8.1 0 0 0-8.1 8.1h1.28a6.81 6.81 0 0 1 6.81-6.8v-1.3Zm8.1 8.1a8.1 8.1 0 0 0-8.1-8.1v1.3a6.81 6.81 0 0 1 6.8 6.8zm-8.1 8.1a8.1 8.1 0 0 0 8.1-8.1h-1.3a6.81 6.81 0 0 1-6.8 6.81zm6.06-8.1a6.07 6.07 0 0 1-6.06 6.07v1.28a7.35 7.35 0 0 0 7.35-7.35zm-6.06-6.06a6.06 6.06 0 0 1 6.06 6.06h1.29c0-4.06-3.3-7.35-7.36-7.35v1.29Zm-6.07 6.06a6.06 6.06 0 0 1 6.06-6.06v-1.3a7.35 7.35 0 0 0-7.35 7.36zm6.06 6.07a6.07 6.07 0 0 1-6.06-6.07h-1.29c0 4.06 3.3 7.35 7.35 7.35zm-11.28 14.8c0-6.32 5.65-11.28 11.29-11.28v-1.29c-6.3 0-12.57 5.48-12.57 12.57zm-1.38.65h.74v-1.3h-.75v1.3Zm12.67-13.96a13.2 13.2 0 0 0-13.32 13.31h1.29c0-7.07 5.65-12.02 12.03-12.02v-1.3Zm13.3 13.3a13.2 13.2 0 0 0-13.31-13.31v1.29c6.38 0 12.02 4.95 12.02 12.02h1.3Zm-1.39.65h.75v-1.3h-.75zm-11.92-11.93c5.63 0 11.28 4.96 11.28 11.28h1.29c0-7.09-6.28-12.57-12.57-12.57v1.3Z"/><defs><filter id="a" width="280.41" height="328.53" x="140.09" y="65.49" color-interpolation-filters="sRGB" filterUnits="userSpaceOnUse"><feFlood flood-opacity="0" result="BackgroundImageFix"/><feColorMatrix in="SourceAlpha" result="hardAlpha" values="0 0 0 0 0 0 0 0 0 0 0 0 0 0 0 0 0 0 127 0"/><feOffset/><feGaussianBlur stdDeviation=".83"/><feColorMatrix values="0 0 0 0 0.101961 0 0 0 0 0.101961 0 0 0 0 0.101961 0 0 0 0.2 0"/><feBlend in2="BackgroundImageFix" result="effect1_dropShadow"/><feBlend in="SourceGraphic" in2="effect1_dropShadow" result="shape"/></filter></defs></svg>