<svg xmlns="http://www.w3.org/2000/svg" width="600" height="519" fill="none"><rect width="231.13" height="231.13" x="213.84" y="191" fill="#F2F6FF" rx="21.28" transform="rotate(67.7 213.84 191)"/><rect width="164.77" height="164.77" x="544" y="28" fill="#FAFAFA" rx="21.28" transform="rotate(74.62 544 28)"/><rect width="164.77" height="164.77" x="260.22" y="255" fill="#E5EEFF" rx="21.28" transform="rotate(52.79 260.22 255)"/><path fill="#F4F4F4" stroke="#E8E8E8" d="M73.5 92.5h463v324h-463z"/><path fill="#1A1A1A" fill-rule="evenodd" d="m330.52 309.79 9.63 5.68-2.44 1.62 2.56 3.48-2.43 1.63-2.56-3.48-2.44 1.62z" clip-rule="evenodd"/><path fill="#fff" stroke="#E8E8E8" d="M79.5 161.5h270v254h-270z"/><g filter="url(#a)"><path fill="#fff" d="M74 124h293v30H74z"/><g clip-path="url(#b)"><path fill="#1A1A1A" fill-rule="evenodd" d="m303.19 139.6-.34.34-2.02-2.12 2.02-2.13.34.36-1.46 1.53h3.82a2.84 2.84 0 0 1 0 5.67h-2.36v-.47h2.36a2.36 2.36 0 0 0 0-4.72h-3.82l1.46 1.53Z" clip-rule="evenodd"/><rect width="18.43" height="18.43" x="295.39" y="129.78" stroke="#E8E8E8" stroke-width=".47" rx="1.65"/><path fill="#1A1A1A" fill-rule="evenodd" d="M330.18 138.06h-3.83a2.36 2.36 0 1 0 0 4.72h2.36v.47h-2.36a2.84 2.84 0 1 1 0-5.67h3.83l-1.47-1.53.34-.36 2.03 2.13-2.03 2.13-.34-.36z" clip-rule="evenodd"/><rect width="18.43" height="18.43" x="318.08" y="129.78" stroke="#E8E8E8" stroke-width=".47" rx="1.65"/><path fill="#1A1A1A" fill-rule="evenodd" d="m351.81 140.93 2.43 2.42-.37.38-2.43-2.43a3.45 3.45 0 0 1-5.71-2.63 3.46 3.46 0 1 1 6.08 2.26m-2.62.67a2.92 2.92 0 1 0 0-5.85 2.92 2.92 0 0 0 0 5.85" clip-rule="evenodd"/><rect width="18.43" height="18.43" x="340.77" y="129.78" stroke="#E8E8E8" stroke-width=".47" rx="1.65"/></g><g clip-path="url(#c)"><path fill="#F4F4F4" d="M81.56 131.44c0-1.05.85-1.9 1.9-1.9h15.12c1.04 0 1.89.85 1.89 1.9v15.12a1.9 1.9 0 0 1-1.9 1.9H83.46c-1.04 0-1.89-.85-1.89-1.9v-15.12Z"/><path fill="#1A1A1A" fill-rule="evenodd" d="m87.7 134.75 1.58 7.23 1.65-1.11 1.74 2.38 1.65-1.11-1.73-2.38 1.65-1.12-6.53-3.9Z" clip-rule="evenodd"/><path fill="#F4F4F4" d="M104.25 131.44c0-1.05.85-1.9 1.9-1.9h15.12c1.04 0 1.89.85 1.89 1.9v15.12a1.9 1.9 0 0 1-1.9 1.9h-15.12c-1.04 0-1.89-.85-1.89-1.9z"/><path fill="#1A1A1A" fill-rule="evenodd" d="M113.7 135.7v6.6h1.9v.48h-4.26v-.47h1.9v-6.62h-2.84v1.42h-.48v-1.9h7.1v1.9h-.48v-1.42h-2.84Z" clip-rule="evenodd"/></g></g><path fill="#fff" d="M74 93h462v30H74z"/><path fill="#FF46FB" fill-rule="evenodd" d="M90.03 110.8h4.73v4.73h-4.73z" clip-rule="evenodd"/><path fill="#CA41FC" fill-rule="evenodd" d="M85.3 110.8h4.73v4.73h-4.72v-4.73Z" clip-rule="evenodd"/><path fill="#8B48FE" fill-rule="evenodd" d="M80.58 110.8h4.73v4.73h-4.73z" clip-rule="evenodd"/><path fill="#81E650" fill-rule="evenodd" d="M94.76 106.08h-4.73v4.72h4.73z" clip-rule="evenodd"/><path fill="#00D267" fill-rule="evenodd" d="M90.03 106.08h-4.72v4.72h4.72z" clip-rule="evenodd"/><path fill="#00C0FF" fill-rule="evenodd" d="M85.3 106.08h-4.72v4.72h4.73v-4.72Z" clip-rule="evenodd"/><path fill="#FFD200" fill-rule="evenodd" d="M90.03 101.35h4.73v4.73h-4.73z" clip-rule="evenodd"/><path fill="#FF8E00" fill-rule="evenodd" d="M85.3 101.35h4.73v4.73h-4.72v-4.73Z" clip-rule="evenodd"/><path fill="#FF5400" fill-rule="evenodd" d="M80.58 101.35h4.73v4.73h-4.73z" clip-rule="evenodd"/><path fill="#212121" d="M100.33 104.79c-.25 0-.48-.05-.7-.13-.2-.1-.4-.22-.55-.38a1.8 1.8 0 0 1-.37-.6c-.1-.24-.14-.51-.14-.81s.05-.58.14-.81a2 2 0 0 1 .37-.62 1.6 1.6 0 0 1 1.14-.5c.23 0 .44.03.62.11.19.08.34.2.46.35.13.15.22.33.29.54a2.4 2.4 0 0 1 .07 1.07h-2.48c.03.4.15.7.37.94.22.22.5.34.86.34.17 0 .34-.03.48-.08.15-.05.3-.12.43-.2l.22.4c-.16.1-.34.19-.54.26-.2.08-.42.12-.67.12m-1.15-2.23h1.96q0-.555-.24-.84a.8.8 0 0 0-.67-.3 1 1 0 0 0-.37.08 1.22 1.22 0 0 0-.56.58q-.09.21-.12.48m4.7 2.23a2.37 2.37 0 0 1-1.74-.74l.38-.44c.18.2.38.34.62.46.24.11.5.17.75.17.33 0 .58-.08.76-.22a.73.73 0 0 0 .27-.6.7.7 0 0 0-.06-.31.6.6 0 0 0-.18-.23 1 1 0 0 0-.25-.17l-.33-.16-.71-.31a3 3 0 0 1-.36-.18 1.5 1.5 0 0 1-.32-.26 1.2 1.2 0 0 1-.32-.84c0-.18.03-.36.1-.52q.135-.24.33-.42c.14-.12.3-.21.5-.28a1.95 1.95 0 0 1 1.45.08c.25.11.46.26.64.44l-.34.4a1.7 1.7 0 0 0-.5-.33 1.4 1.4 0 0 0-.63-.13c-.27 0-.5.06-.67.2a.63.63 0 0 0-.25.52c0 .13.02.23.07.31a.9.9 0 0 0 .2.22 1.9 1.9 0 0 0 .55.3l.7.3c.15.06.28.13.4.21q.195.12.33.27c.1.1.16.23.21.37a1.3 1.3 0 0 1-.04 1.03q-.105.255-.33.45c-.14.13-.32.23-.53.3-.2.07-.44.1-.7.1Zm2.6-.09v-3.68h.62v3.68zm.32-4.43a.46.46 0 0 1-.3-.12.38.38 0 0 1-.13-.28c0-.13.04-.22.12-.3a.45.45 0 0 1 .31-.1c.12 0 .22.03.3.1.09.08.13.17.13.3 0 .11-.04.2-.13.28a.43.43 0 0 1-.3.12m2.78 6.12c-.22 0-.43-.02-.62-.07-.18-.04-.34-.1-.48-.19a1 1 0 0 1-.31-.3.83.83 0 0 1 .04-.88c.1-.14.23-.27.4-.38v-.03a.8.8 0 0 1-.24-.23.7.7 0 0 1-.1-.37c0-.16.05-.3.14-.4.08-.12.17-.22.27-.28v-.03a1.6 1.6 0 0 1-.34-.4c-.1-.17-.14-.37-.14-.6 0-.2.04-.37.1-.54a1.3 1.3 0 0 1 .74-.67 1.62 1.62 0 0 1 1.07 0h1.27v.48h-.75a1 1 0 0 1 .2.32c.07.14.1.28.1.43 0 .2-.04.38-.1.54-.08.16-.17.3-.3.4a1.47 1.47 0 0 1-1.23.31c-.1-.02-.18-.06-.27-.1a.8.8 0 0 0-.16.2.43.43 0 0 0-.07.24c0 .12.04.21.13.29.1.08.27.11.52.11h.7c.44 0 .76.07.97.21.22.14.32.36.32.67 0 .17-.04.33-.13.48-.08.16-.2.3-.37.41-.16.12-.35.2-.58.27s-.49.11-.78.11m0-3.27a.72.72 0 0 0 .55-.24.8.8 0 0 0 .17-.27c.04-.11.06-.23.06-.37 0-.27-.07-.48-.22-.63a.75.75 0 0 0-.56-.22c-.21 0-.4.07-.55.22s-.22.36-.22.63c0 .14.02.26.06.37.04.1.1.2.16.27.08.08.16.14.25.18q.15.06.3.06m.1 2.84a1.56 1.56 0 0 0 .84-.24c.1-.06.18-.14.24-.23.05-.1.08-.18.08-.28 0-.17-.06-.29-.19-.35-.13-.07-.31-.1-.55-.1h-.64a2 2 0 0 1-.47-.06 1 1 0 0 0-.29.3c-.06.1-.1.21-.1.32 0 .2.1.35.29.47.19.11.45.17.78.17Zm2.47-1.26v-3.68h.52l.05.53h.02c.18-.17.36-.32.56-.44s.42-.18.68-.18c.38 0 .67.12.84.36.18.25.28.6.28 1.08v2.33h-.63v-2.25c0-.35-.05-.6-.16-.75s-.29-.23-.53-.23a.9.9 0 0 0-.5.14c-.15.1-.32.24-.5.42v2.67z"/><path fill="#757575" d="M98.57 115.18v-4.34h1.09c.67 0 1.17.19 1.52.55.35.38.53.9.53 1.6 0 .34-.05.65-.14.93a1.75 1.75 0 0 1-1.03 1.12c-.24.1-.53.14-.86.14zm.55-.45h.5c.5 0 .88-.15 1.13-.46.26-.3.39-.73.39-1.28s-.13-.97-.39-1.26c-.25-.3-.63-.44-1.13-.44h-.5zm4.72.53a1.42 1.42 0 0 1-1.04-.44 1.7 1.7 0 0 1-.45-1.24 2 2 0 0 1 .12-.72c.08-.2.2-.39.33-.53a1.37 1.37 0 0 1 1.04-.44 1.43 1.43 0 0 1 1.36.97c.08.21.13.45.13.72 0 .26-.05.5-.13.71a1.4 1.4 0 0 1-1.36.96Zm0-.45c.13 0 .26-.03.38-.09a.9.9 0 0 0 .29-.25c.08-.1.14-.24.19-.39.04-.15.06-.32.06-.5 0-.19-.02-.36-.06-.5a1.2 1.2 0 0 0-.2-.4.8.8 0 0 0-.28-.25.8.8 0 0 0-.38-.1.86.86 0 0 0-.67.34c-.09.12-.15.25-.2.4-.04.16-.06.32-.06.5 0 .2.02.36.07.51.04.15.1.28.18.4q.135.15.3.24c.12.06.24.09.38.09m3.6.45c-.2 0-.4-.04-.6-.11a1.4 1.4 0 0 1-.48-.33 1.7 1.7 0 0 1-.31-.53 2.13 2.13 0 0 1 .01-1.43c.08-.2.2-.39.34-.53.14-.15.3-.26.49-.33.19-.08.39-.11.6-.11.2 0 .39.03.54.1.14.08.28.17.4.27l-.29.36a1 1 0 0 0-.3-.2.7.7 0 0 0-.34-.09.9.9 0 0 0-.4.1.9.9 0 0 0-.32.25c-.09.1-.16.24-.21.4-.05.14-.07.31-.07.5 0 .18.02.35.07.5s.11.28.2.4c.09.1.2.18.31.24a.95.95 0 0 0 .82 0c.13-.07.24-.15.34-.24l.24.37a1.5 1.5 0 0 1-1.04.41m2.69 0c-.34 0-.6-.1-.75-.32a1.58 1.58 0 0 1-.24-.94v-2.04h.55v1.97c0 .3.05.52.14.66.1.13.25.2.46.2.17 0 .32-.04.45-.13.13-.08.27-.22.42-.41v-2.29h.54v3.22h-.45l-.04-.5h-.02q-.225.255-.48.42c-.16.1-.36.16-.58.16m2.66-.08v-3.22h.45l.04.47h.02c.14-.16.3-.29.46-.39a1 1 0 0 1 .54-.16.9.9 0 0 1 .58.17c.14.1.24.26.3.45.18-.19.34-.33.51-.44a1 1 0 0 1 .56-.17c.33 0 .57.1.73.31s.25.53.25.94v2.04h-.55v-1.97c0-.3-.05-.52-.14-.65-.1-.14-.25-.2-.45-.2-.24 0-.51.16-.8.5v2.32h-.55v-1.97c0-.3-.05-.52-.15-.65-.1-.14-.25-.2-.45-.2-.25 0-.51.16-.81.5v2.32zm6.79.08c-.22 0-.42-.04-.61-.11a1.6 1.6 0 0 1-.5-.34 1.6 1.6 0 0 1-.32-.52c-.08-.21-.12-.45-.12-.71a1.74 1.74 0 0 1 .44-1.24 1.4 1.4 0 0 1 1.55-.35c.16.07.3.17.4.3.11.14.2.3.25.48a2.1 2.1 0 0 1 .07.93h-2.17c.02.35.13.62.32.82.2.2.44.3.75.3q.24 0 .42-.06c.14-.05.26-.12.38-.19l.2.36c-.15.09-.3.16-.48.23-.17.06-.36.1-.58.1m-1.02-1.95h1.72c0-.32-.07-.57-.2-.74a.7.7 0 0 0-.6-.25.9.9 0 0 0-.32.06 1.07 1.07 0 0 0-.49.5 1.5 1.5 0 0 0-.1.43Zm2.99 1.87v-3.22h.45l.05.47h.02c.15-.16.32-.29.48-.39.17-.1.37-.16.6-.16.34 0 .58.11.74.32s.24.53.24.94v2.04h-.55v-1.97c0-.3-.04-.52-.14-.65-.1-.14-.25-.2-.46-.2a.8.8 0 0 0-.45.12c-.13.08-.27.2-.43.37v2.33zm4.63.08a1.1 1.1 0 0 1-.43-.08.8.8 0 0 1-.29-.22.9.9 0 0 1-.15-.34 2 2 0 0 1-.05-.43v-1.78h-.47V112l.5-.04.07-.9h.45v.9h.87v.45h-.87v1.78c0 .2.04.36.1.47.08.1.21.16.4.16l.18-.03.18-.06.1.4a2.3 2.3 0 0 1-.59.13m1.56 0a.4.4 0 0 1-.29-.11.42.42 0 0 1-.11-.3c0-.13.04-.23.11-.3a.4.4 0 0 1 .29-.13c.1 0 .2.05.27.12a.4.4 0 0 1 .12.3.4.4 0 0 1-.12.3.37.37 0 0 1-.27.12m1.36 1.27v-4.57h.45l.04.38h.03c.14-.13.3-.23.47-.32.18-.1.36-.13.55-.13.2 0 .4.03.55.11.16.08.3.19.4.33.1.15.18.32.23.52a2.44 2.44 0 0 1-.02 1.41c-.08.21-.18.4-.3.54-.13.15-.28.27-.45.35-.17.07-.34.1-.53.1-.15 0-.3-.03-.45-.1-.14-.06-.3-.15-.44-.26l.01.56v1.08zm1.33-1.73a.78.78 0 0 0 .65-.33c.09-.12.15-.25.2-.4a2.3 2.3 0 0 0 .03-1.02 1 1 0 0 0-.16-.38.7.7 0 0 0-.27-.24.8.8 0 0 0-.38-.09.9.9 0 0 0-.41.11q-.21.12-.45.33v1.69c.15.12.29.2.43.26.13.05.25.07.36.07m3.44.46c-.4 0-.73-.15-.98-.44-.23-.29-.35-.7-.35-1.24a1.73 1.73 0 0 1 .42-1.24c.13-.14.28-.26.44-.34a1.21 1.21 0 0 1 1.02-.02c.13.07.27.16.41.27l-.02-.54v-1.24h.54v4.7h-.44l-.05-.37h-.02c-.13.13-.28.23-.44.33a1.1 1.1 0 0 1-.53.13m.12-.46c.15 0 .29-.03.42-.1.13-.08.26-.2.4-.34v-1.68a1.3 1.3 0 0 0-.4-.26 1 1 0 0 0-.38-.08.75.75 0 0 0-.37.1.9.9 0 0 0-.29.25c-.08.1-.15.23-.2.38s-.07.32-.07.5c0 .39.08.7.23.9.16.22.37.33.66.33m2.54.38v-2.77h-.44V112l.44-.04v-.5c0-.34.07-.6.22-.79.16-.19.4-.28.72-.28.1 0 .2.01.28.03.1.02.18.05.26.08l-.12.41a.9.9 0 0 0-.37-.08q-.45 0-.45.63v.5h.68v.45h-.68v2.77z"/><path fill="#fff" d="M368 124h168v292H368z"/><g opacity=".82"><rect width="155.91" height="21.58" x="374" y="388" fill="#05F" rx="1.9"/><path fill="#fff" d="M427.82 401.5h1.12v-1.8h.61l.95 1.8h1.26l-1.13-2c.54-.23.89-.7.89-1.42 0-1.18-.86-1.55-1.91-1.55h-1.79v4.96Zm1.12-2.69v-1.39h.58c.58 0 .9.17.9.66 0 .48-.32.73-.9.73zm5.06 2.77c.46 0 .96-.16 1.35-.42l-.38-.68c-.27.17-.53.25-.81.25-.5 0-.88-.25-.98-.8h2.26c.02-.09.04-.3.04-.5 0-1.02-.53-1.8-1.6-1.8-.9 0-1.78.75-1.78 1.98 0 1.24.83 1.97 1.9 1.97m-.83-2.39c.08-.48.38-.71.73-.71.45 0 .63.3.63.71zm3.91 2.31h1.3l1.22-3.78h-1.07l-.5 1.78c-.1.37-.2.77-.28 1.16h-.03l-.3-1.16-.49-1.78h-1.12l1.27 3.77Zm3.12 0h1.11v-3.78h-1.12v3.77Zm.55-4.34c.38 0 .64-.24.64-.58s-.26-.58-.64-.58-.65.24-.65.58.27.58.65.58m3.23 4.42c.45 0 .95-.16 1.34-.42l-.37-.68c-.28.17-.53.25-.82.25-.5 0-.88-.25-.98-.8h2.26c.02-.09.05-.3.05-.5 0-1.02-.53-1.8-1.6-1.8-.91 0-1.79.75-1.79 1.98 0 1.24.83 1.97 1.91 1.97m-.84-2.39c.08-.48.39-.71.74-.71.44 0 .63.3.63.71zm3.68 2.31h1.27l.34-1.51.19-1.1h.03l.2 1.1.35 1.5h1.3l.91-3.77h-1.03l-.36 1.75c-.07.37-.1.74-.18 1.12h-.03c-.07-.38-.14-.75-.23-1.12l-.43-1.75h-.96l-.42 1.75c-.1.36-.15.74-.22 1.12h-.03l-.17-1.12-.37-1.75h-1.1l.94 3.77Zm8.14.08c.62 0 1.14-.19 1.56-.5.42.24.86.42 1.27.5l.26-.9a3 3 0 0 1-.86-.31c.38-.52.65-1.08.83-1.68h-1.01c-.13.47-.32.86-.58 1.19a6 6 0 0 1-1-.9c.52-.36 1.04-.77 1.04-1.41 0-.69-.47-1.13-1.22-1.13-.82 0-1.34.6-1.34 1.3 0 .31.11.67.3 1.03-.48.31-.9.7-.9 1.4 0 .76.57 1.41 1.65 1.41m-.13-3.85c0-.34.2-.55.45-.55.23 0 .34.15.34.39 0 .33-.27.54-.63.76-.1-.2-.16-.41-.16-.6m.27 3c-.44 0-.73-.26-.73-.63 0-.23.13-.42.33-.6.29.37.65.72 1.03 1.03-.2.13-.42.2-.63.2m6.71.85c1.19 0 1.87-.71 1.87-1.53 0-.7-.38-1.1-.98-1.35l-.64-.26c-.42-.17-.75-.28-.75-.58 0-.29.24-.45.63-.45.4 0 .7.14 1.03.4l.57-.71a2.3 2.3 0 0 0-1.6-.66c-1.03 0-1.76.66-1.76 1.48 0 .72.48 1.14 1 1.35l.64.27c.43.19.72.29.72.6 0 .3-.23.48-.7.48a2 2 0 0 1-1.22-.52l-.64.77c.5.47 1.19.71 1.83.71m4.31 0c.45 0 .95-.16 1.34-.42l-.37-.68c-.28.17-.53.25-.82.25-.5 0-.88-.25-.98-.8h2.26c.02-.09.05-.3.05-.5 0-1.02-.54-1.8-1.6-1.8-.91 0-1.79.75-1.79 1.98 0 1.24.83 1.97 1.91 1.97m-.83-2.39c.07-.48.38-.71.73-.71.44 0 .63.3.63.71zm3.08 2.31h1.12v-2.56c.24-.23.42-.36.7-.36.32 0 .46.17.46.71v2.2h1.12v-2.34c0-.94-.35-1.52-1.17-1.52-.51 0-.9.26-1.21.57h-.03l-.08-.48h-.91v3.77Zm5.7.08c.36 0 .74-.2 1-.46h.03l.08.37h.91v-5.33h-1.12v1.28l.05.58c-.26-.24-.51-.4-.93-.4-.8 0-1.56.75-1.56 1.99 0 1.23.6 1.97 1.54 1.97m.29-.91c-.44 0-.69-.34-.69-1.08 0-.71.32-1.05.68-1.05.2 0 .43.06.62.24v1.55c-.18.25-.37.34-.61.34"/></g><rect width="158.26" height="41.85" x="396.38" y="142.38" fill="#FAFAFA" rx="2.66"/><path fill="#0FC0C5" d="M408.17 157.22a3.04 3.04 0 0 1 3.05-3.05h12.17a3.04 3.04 0 0 1 3.05 3.05v12.17a3.04 3.04 0 0 1-3.05 3.05h-12.17a3.04 3.04 0 0 1-3.05-3.05z"/><path fill="#fff" fill-rule="evenodd" d="m417.3 162.12 4.15-4.14 1.18 1.18-4.14 4.14h-1.19z" clip-rule="evenodd"/><path fill="#fff" fill-rule="evenodd" d="M411.98 157.98h7.6v.76h-6.84v9.13h6.85v-4.57h.76v5.33h-8.37z" clip-rule="evenodd"/><path fill="#fff" fill-rule="evenodd" d="M415.78 164.06h-2.28v-.76h2.28zm0 3.04h-2.28v-.75h2.28v.76Z" clip-rule="evenodd"/><path fill="#fff" fill-rule="evenodd" d="M414.26 166.73v-3.04h.76v3.04z" clip-rule="evenodd"/><path fill="#1A1A1A" d="M439.55 167.17v-7.93h4.96v1.5h-3.17v1.6h2.7v1.5h-2.7v1.82h3.3v1.51h-5.1Zm8.56.15c-.38 0-.72-.07-1.03-.22a2.3 2.3 0 0 1-.78-.62 3.2 3.2 0 0 1-.5-1 4.77 4.77 0 0 1 .04-2.65c.15-.4.33-.72.56-.99.24-.27.5-.49.8-.63a2.17 2.17 0 0 1 1.78-.05 3 3 0 0 1 .65.46l-.07-.92v-2.06h1.78v8.53h-1.46l-.12-.6h-.05c-.2.22-.46.4-.74.54s-.57.21-.86.21m.46-1.46c.2 0 .37-.04.52-.12.16-.08.32-.23.47-.43v-2.47a1.44 1.44 0 0 0-1-.39c-.29 0-.54.14-.76.41s-.33.7-.33 1.27c0 .6.1 1.04.28 1.31.2.28.47.42.82.42m4.36 1.31v-6.03h1.79v6.03zm.89-6.92c-.3 0-.55-.09-.74-.26a.88.88 0 0 1-.3-.68c0-.28.1-.5.3-.67s.44-.26.74-.26.56.09.74.26c.2.17.3.4.3.67 0 .28-.1.5-.3.68-.19.17-.43.26-.74.26m4.8 7.07c-.37 0-.7-.06-.96-.17a1.73 1.73 0 0 1-1.01-1.2c-.08-.3-.11-.62-.11-.97v-2.44h-.83v-1.33l.93-.07.2-1.61h1.49v1.6h1.45v1.4h-1.45v2.43c0 .34.07.59.2.74.15.15.34.22.58.22a2 2 0 0 0 .57-.12l.28 1.3-.57.15c-.22.05-.48.07-.77.07m4.92-.15v-7.93h2.72c.44 0 .85.04 1.23.13.39.08.72.22 1 .43.29.2.51.45.67.79.17.32.26.72.26 1.2 0 .47-.09.87-.26 1.2-.16.35-.38.63-.67.85-.28.22-.61.38-.98.48-.38.11-.77.16-1.2.16h-.98v2.7h-1.8Zm1.79-4.11h.87c.98 0 1.47-.42 1.47-1.27 0-.41-.13-.7-.4-.87a2.04 2.04 0 0 0-1.12-.26h-.82zm5.46 4.11v-7.93h2.24c.6 0 1.16.07 1.64.23a3.08 3.08 0 0 1 2.06 1.94 5 5 0 0 1 .28 1.76c0 .68-.1 1.27-.28 1.78-.19.5-.45.92-.79 1.25s-.75.57-1.23.73c-.47.16-1 .24-1.58.24zm1.79-1.44h.34c.34 0 .65-.05.93-.14.27-.09.5-.23.7-.43s.35-.46.45-.79c.12-.32.17-.72.17-1.2 0-.47-.05-.87-.17-1.18-.1-.33-.25-.58-.45-.77-.2-.2-.43-.33-.7-.41a3.3 3.3 0 0 0-.93-.13h-.34v5.04Zm5.94 1.44v-7.93h5v1.5h-3.21v1.84h2.75v1.51h-2.75v3.08h-1.8Z"/><path fill="#1A1A1A" fill-rule="evenodd" d="m531.44 159.5.76-.76 4.56 4.56-4.56 4.57-.76-.76 3.93-3.8z" clip-rule="evenodd"/><rect width="158.26" height="41.85" x="396.38" y="142.38" stroke="#E8E8E8" stroke-width=".76" rx="2.66"/><rect width="158.26" height="41.85" x="396.38" y="191.08" fill="#FAFAFA" rx="2.66"/><path fill="#FFB700" d="M408.17 205.91a3.04 3.04 0 0 1 3.05-3.04h12.17a3.04 3.04 0 0 1 3.05 3.04v12.18a3.04 3.04 0 0 1-3.05 3.04h-12.17a3.04 3.04 0 0 1-3.05-3.04V205.9Z"/><path fill="#fff" fill-rule="evenodd" d="M411.98 206.67h6.85v2.67h-.76v-1.9h-5.33v6.84h3.42v.76h-4.18z" clip-rule="evenodd"/><path fill="#fff" fill-rule="evenodd" d="M421.87 209.72h-5.33v6.84h5.33zm-6.09-.76v8.37h6.85v-8.37z" clip-rule="evenodd"/><path fill="#fff" fill-rule="evenodd" d="m417.3 212.98 1.9 1.9 1.15-1.13 2.17 2.17-.54.53-1.63-1.63-1.14 1.14-1.9-1.9-.88.87-.54-.54 1.42-1.4Z" clip-rule="evenodd"/><path fill="#fff" d="M421.1 211.24a.76.76 0 1 1-1.51 0 .76.76 0 0 1 1.52 0Z"/><path fill="#fff" fill-rule="evenodd" d="M420.35 212a.76.76 0 1 0 0-1.52.76.76 0 0 0 0 1.52" clip-rule="evenodd"/><path fill="#1A1A1A" d="M439.55 215.87v-7.94h2.72c.44 0 .85.05 1.23.14.38.08.72.22 1 .42.29.2.5.46.67.8.17.32.26.72.26 1.2 0 .46-.09.86-.26 1.2-.16.34-.38.63-.67.84-.28.22-.61.39-.99.5-.37.1-.77.15-1.19.15h-.98v2.69h-1.8Zm1.79-4.12h.87c.98 0 1.46-.42 1.46-1.26 0-.42-.13-.7-.39-.88a2.05 2.05 0 0 0-1.12-.25h-.82v2.4Zm5.46 4.12v-7.94h2.24c.6 0 1.15.08 1.64.23a3.07 3.07 0 0 1 2.06 1.94c.19.5.28 1.08.28 1.77 0 .68-.1 1.27-.28 1.77-.19.5-.45.92-.8 1.26-.33.32-.74.56-1.22.73-.47.16-1 .24-1.58.24zm1.79-1.45h.34a3 3 0 0 0 .92-.13c.28-.1.52-.23.71-.43.2-.2.34-.47.45-.79.12-.32.17-.73.17-1.2 0-.48-.06-.87-.17-1.19-.1-.32-.25-.58-.45-.76-.2-.2-.43-.34-.7-.42a3.3 3.3 0 0 0-.93-.12h-.34zm5.94 1.45v-7.94h5v1.51h-3.21v1.84h2.75v1.51h-2.75v3.08h-1.8Zm11 .15q-.57 0-.96-.18a1.72 1.72 0 0 1-1.01-1.2c-.08-.3-.12-.61-.12-.96v-2.45h-.82v-1.32l.92-.08.2-1.6h1.5v1.6h1.44v1.4h-1.44v2.42c0 .34.06.6.2.75.15.14.34.22.57.22.1 0 .2-.02.3-.04.1-.03.2-.05.28-.09l.28 1.3c-.17.06-.36.1-.58.15s-.47.08-.76.08m4.71 0a2.96 2.96 0 0 1-2.06-.83c-.26-.27-.48-.6-.64-.99-.16-.4-.25-.85-.25-1.35s.09-.95.25-1.34a2.8 2.8 0 0 1 1.6-1.6 2.89 2.89 0 0 1 3.8 1.6c.15.4.24.84.24 1.34s-.09.95-.25 1.35a2.92 2.92 0 0 1-2.69 1.82m0-1.45a.9.9 0 0 0 .83-.47c.19-.3.28-.72.28-1.25s-.1-.94-.28-1.25a.9.9 0 0 0-.83-.47.92.92 0 0 0-.84.47c-.18.3-.27.72-.27 1.25s.1.95.27 1.25c.19.31.47.47.84.47m8.56 1.45c-.61 0-1.12-.12-1.54-.36-.4-.23-.74-.6-1.02-1.08l1.22-.9c.15.27.31.47.51.6s.4.19.6.19c.32 0 .56-.1.73-.3s.25-.56.25-1.09v-5.15h1.8v5.3c0 .38-.06.74-.17 1.08-.1.34-.25.64-.46.89-.2.25-.47.45-.79.6-.32.14-.7.22-1.13.22m4.38-.15v-7.94h2.72c.44 0 .85.05 1.23.14.39.08.72.22 1 .42.29.2.51.46.67.8.17.32.26.72.26 1.2 0 .46-.09.86-.26 1.2-.16.34-.38.63-.67.84-.28.22-.61.39-.98.5-.38.1-.77.15-1.2.15h-.98v2.69h-1.8Zm1.79-4.12h.87q1.47 0 1.47-1.26c0-.42-.13-.7-.4-.88a2.04 2.04 0 0 0-1.12-.25h-.82v2.4Zm8.97 4.27c-.55 0-1.06-.09-1.54-.26a3.5 3.5 0 0 1-2.05-2.04c-.2-.52-.3-1.1-.3-1.77 0-.66.1-1.24.3-1.75a3.64 3.64 0 0 1 2.07-2.13c.48-.19.98-.28 1.5-.28.58 0 1.07.1 1.49.31.41.21.75.45 1 .72l-.93 1.15c-.2-.18-.42-.33-.64-.46a1.8 1.8 0 0 0-.85-.18 1.97 1.97 0 0 0-1.51.68c-.2.22-.34.5-.44.8q-.15.48-.15 1.08c0 .82.18 1.46.55 1.91s.93.67 1.68.67c.16 0 .32-.02.47-.06.16-.04.28-.1.38-.18v-1.37h-1.31v-1.46h2.9v3.65c-.28.27-.65.5-1.1.69-.46.18-.96.28-1.52.28"/><path fill="#1A1A1A" fill-rule="evenodd" d="m531.44 208.2.76-.76 4.56 4.56-4.56 4.56-.76-.75 3.93-3.81z" clip-rule="evenodd"/><rect width="158.26" height="41.85" x="396.38" y="191.08" stroke="#E8E8E8" stroke-width=".76" rx="2.66"/><rect width="158.26" height="41.85" x="396.38" y="239.77" fill="#FAFAFA" rx="2.66"/><path fill="#7961F2" d="M408.17 254.6a3.04 3.04 0 0 1 3.05-3.03h12.17a3.04 3.04 0 0 1 3.05 3.04v12.17a3.04 3.04 0 0 1-3.05 3.05h-12.17a3.04 3.04 0 0 1-3.05-3.05v-12.17Z"/><path fill="#fff" fill-rule="evenodd" d="M412.36 254.99h6.85v2.66h-.76v-1.9h-5.33v7.6h2.66v.77h-3.42z" clip-rule="evenodd"/><path fill="#fff" fill-rule="evenodd" d="M421.87 258.41h-5.33v6.85h5.33zm-6.09-.76v8.37h6.85v-8.37z" clip-rule="evenodd"/><path fill="#fff" fill-rule="evenodd" d="M418.83 263.74v-3.8h.76v3.8z" clip-rule="evenodd"/><path fill="#fff" fill-rule="evenodd" d="M421.1 262.22h-3.8v-.76h3.8z" clip-rule="evenodd"/><path fill="#1A1A1A" d="M439.55 264.56v-7.93h1.96l1.28 3.53.23.73.23.73h.05l.21-.73.24-.73 1.25-3.53h1.95v7.94h-1.63v-2.92a9 9 0 0 1 .08-1.35l.08-.7.07-.65h-.05l-.64 1.89-1.14 3.03h-.98l-1.14-3.03-.63-1.89h-.05l.07.65.08.7a21 21 0 0 1 .08 1.35v2.92h-1.6Zm11.83.15a2.9 2.9 0 0 1-2.18-.83 2.9 2.9 0 0 1-.65-1 3.6 3.6 0 0 1-.23-1.33 3.4 3.4 0 0 1 .88-2.32 2.8 2.8 0 0 1 3.09-.63c.32.15.6.35.8.6.22.27.38.58.49.93a3.95 3.95 0 0 1 .09 1.94h-3.62c.08.44.26.76.53.97.29.2.63.3 1.04.3.43 0 .86-.13 1.3-.4l.6 1.09a3.94 3.94 0 0 1-2.14.68m-1.34-3.82h2.18c0-.34-.08-.62-.24-.83-.15-.21-.4-.32-.77-.32-.29 0-.54.1-.76.28-.21.2-.35.48-.41.87m4.94 3.68v-6.04h1.46l.12 1.06h.05c.21-.42.48-.72.79-.92a1.72 1.72 0 0 1 1.34-.25c.11.01.21.04.3.08l-.3 1.55a2.1 2.1 0 0 0-.66-.1c-.22 0-.45.08-.7.24-.25.17-.45.45-.62.87v3.5h-1.78Zm6.88 2.56c-.36 0-.69-.03-1-.1-.3-.05-.56-.14-.8-.26-.23-.12-.4-.28-.54-.48-.13-.2-.2-.42-.2-.69 0-.49.3-.9.87-1.22v-.05c-.16-.1-.3-.24-.4-.4s-.16-.37-.16-.62c0-.22.07-.43.2-.62.13-.2.29-.37.49-.51v-.05a1.84 1.84 0 0 1-.82-1.57 2.05 2.05 0 0 1 1.56-2.05 3.24 3.24 0 0 1 1.87.02h2.2v1.3h-.96a1.6 1.6 0 0 1 .2.8q0 .51-.18.9c-.13.26-.3.47-.51.64-.22.16-.47.28-.76.36-.28.08-.6.12-.93.12-.23 0-.47-.04-.73-.12a.6.6 0 0 0-.17.2.6.6 0 0 0-.04.25c0 .16.06.27.19.34.14.08.38.11.72.11h.97c.75 0 1.32.13 1.7.37q.6.345.6 1.17c0 .31-.08.6-.24.86-.15.27-.38.5-.67.68-.3.2-.64.35-1.06.45-.41.12-.88.17-1.4.17m.13-5.56c.24 0 .44-.08.59-.24.16-.17.24-.43.24-.77q0-.48-.24-.72a.75.75 0 0 0-.58-.25.8.8 0 0 0-.6.24c-.16.16-.23.4-.23.73 0 .34.07.6.23.77q.24.24.6.24Zm.15 4.44c.4 0 .74-.07 1-.21s.39-.32.39-.53c0-.19-.08-.31-.24-.38-.16-.06-.39-.1-.69-.1h-.62a4.3 4.3 0 0 1-.85-.07q-.33.3-.33.6c0 .23.12.4.37.51.24.12.56.18.97.18m6.56-1.3a2.9 2.9 0 0 1-2.18-.83 2.9 2.9 0 0 1-.65-1 3.6 3.6 0 0 1-.23-1.33 3.4 3.4 0 0 1 .88-2.32 2.8 2.8 0 0 1 3.1-.63c.32.15.58.35.8.6.21.27.38.58.48.93a3.95 3.95 0 0 1 .09 1.94h-3.62c.08.44.26.76.54.97.28.2.63.3 1.03.3.43 0 .87-.13 1.3-.4l.6 1.09a3.97 3.97 0 0 1-2.14.68m-1.34-3.82h2.18c0-.34-.08-.62-.23-.83-.16-.21-.42-.32-.78-.32-.29 0-.54.1-.76.28-.2.2-.35.48-.41.87m7.52 3.68v-7.94h2.73c.44 0 .84.04 1.23.13.38.08.71.23 1 .43.28.2.5.46.66.79.17.32.26.72.26 1.2 0 .47-.09.87-.26 1.2-.16.35-.38.63-.67.85-.28.22-.6.38-.98.49-.38.1-.77.15-1.2.15h-.98v2.7zm1.79-4.12h.88c.97 0 1.46-.42 1.46-1.27 0-.41-.13-.7-.4-.87a2.04 2.04 0 0 0-1.11-.26h-.83zm5.46 4.12v-7.94h2.24c.61 0 1.16.07 1.64.23a3.08 3.08 0 0 1 2.06 1.94c.19.49.28 1.08.28 1.76s-.1 1.27-.28 1.78c-.18.5-.45.92-.79 1.25s-.75.57-1.23.73c-.47.16-1 .25-1.58.25zm1.8-1.45h.33c.34 0 .65-.05.93-.14.27-.09.5-.23.7-.42.2-.2.35-.47.45-.8.12-.32.17-.72.17-1.2 0-.47-.05-.87-.17-1.18-.1-.33-.25-.58-.45-.77-.2-.2-.43-.33-.7-.41a3.3 3.3 0 0 0-.93-.12h-.34v5.04Zm5.93 1.44v-7.93h5v1.5h-3.21v1.85h2.75v1.5h-2.75v3.08h-1.8Z"/><path fill="#1A1A1A" fill-rule="evenodd" d="m531.44 256.9.76-.77 4.56 4.56-4.56 4.57-.76-.76 3.93-3.8z" clip-rule="evenodd"/><rect width="158.26" height="41.85" x="396.38" y="239.77" stroke="#E8E8E8" stroke-width=".76" rx="2.66"/><rect width="158.26" height="41.85" x="396.38" y="288.38" fill="#FAFAFA" rx="2.66"/><path fill="#E667E6" d="M408.17 303.22a3.04 3.04 0 0 1 3.05-3.05h12.17a3.04 3.04 0 0 1 3.05 3.05v12.17a3.04 3.04 0 0 1-3.05 3.05h-12.17a3.04 3.04 0 0 1-3.05-3.05z"/><path fill="#fff" fill-rule="evenodd" d="m417.3 315.4 3.8-6.86-.47-3.04h-6.62l-.51 3.04 3.8 6.85Zm0-1.57 3.02-5.43-.34-2.14h-5.33l-.36 2.15 3.01 5.41Z" clip-rule="evenodd"/><path fill="#fff" fill-rule="evenodd" d="M416.92 313.87v-3.8h.76v3.8zm-4.18-10.65 1.52 3.04h6.09l1.52-3.04zm1.22.75.77 1.53h5.15l.76-1.52h-6.68Z" clip-rule="evenodd"/><path fill="#fff" fill-rule="evenodd" d="M417.3 307.4a1.14 1.14 0 1 0 0 2.29 1.14 1.14 0 0 0 0-2.29m-1.9 1.14a1.9 1.9 0 1 1 3.8 0 1.9 1.9 0 0 1-3.8 0" clip-rule="evenodd"/><path fill="#1A1A1A" d="M442.1 313.32a2.9 2.9 0 0 1-2.18-.83 2.9 2.9 0 0 1-.64-1 3.6 3.6 0 0 1-.23-1.34 3.4 3.4 0 0 1 .87-2.3 2.8 2.8 0 0 1 3.1-.64c.32.15.59.35.8.6.22.27.38.58.49.93a3.95 3.95 0 0 1 .08 1.94h-3.61c.08.44.26.76.53.97.29.2.63.3 1.04.3.43 0 .86-.13 1.3-.4l.6 1.09a3.9 3.9 0 0 1-2.15.68m-1.34-3.82h2.18c0-.34-.07-.62-.23-.83-.15-.21-.41-.32-.78-.32-.28 0-.53.1-.75.28q-.315.285-.42.87m7.27 3.82a4.15 4.15 0 0 1-2.93-1.14l1.02-1.23c.28.24.6.44.94.6.35.15.69.22 1.02.22.38 0 .65-.06.83-.2a.66.66 0 0 0 .28-.56.64.64 0 0 0-.32-.55 15 15 0 0 0-.83-.4l-1.03-.44a3 3 0 0 1-1.1-.77 2.2 2.2 0 0 1-.36-.6 2.23 2.23 0 0 1 .66-2.47c.25-.21.54-.38.89-.5a3.65 3.65 0 0 1 3.7.86l-.92 1.13a3.3 3.3 0 0 0-.78-.46 2.1 2.1 0 0 0-.86-.17c-.3 0-.56.06-.74.2a.6.6 0 0 0-.27.52c0 .12.03.22.08.31.07.08.15.16.26.23s.24.13.39.2c.15.05.3.12.47.2l1.03.4c.48.2.87.47 1.14.81.28.34.43.8.43 1.35a2.24 2.24 0 0 1-.8 1.73 3 3 0 0 1-.93.54c-.38.13-.8.19-1.27.19m4.2-.15v-6.03h1.79v6.03h-1.8Zm.89-6.92c-.3 0-.55-.09-.75-.26a.88.88 0 0 1-.29-.68c0-.28.1-.5.3-.67.19-.17.44-.26.74-.26s.55.09.74.26c.2.17.3.4.3.67 0 .28-.1.5-.3.68-.19.17-.43.26-.74.26m4.63 9.5c-.36 0-.7-.04-1-.1s-.57-.15-.8-.27q-.345-.18-.54-.48c-.13-.2-.2-.42-.2-.7 0-.48.3-.88.87-1.2v-.06a1.12 1.12 0 0 1-.56-1.02c0-.22.06-.43.2-.62q.195-.3.48-.51v-.05a1.84 1.84 0 0 1-.82-1.57 2.05 2.05 0 0 1 1.56-2.05 3.25 3.25 0 0 1 1.88.02h2.2v1.3h-.96c.06.09.1.2.13.34.05.14.07.29.07.45 0 .35-.06.65-.19.91-.12.25-.29.47-.5.64-.22.16-.47.28-.76.36q-.435.12-.93.12c-.23 0-.48-.04-.73-.12a.6.6 0 0 0-.17.2.6.6 0 0 0-.05.25c0 .16.07.27.2.34s.37.11.72.11h.97c.75 0 1.31.12 1.7.37q.6.345.6 1.17c0 .31-.08.6-.24.86-.16.27-.38.5-.67.68-.3.2-.65.35-1.06.45-.42.12-.88.17-1.4.17Zm.13-5.57c.24 0 .43-.08.59-.24.16-.18.24-.43.24-.77q0-.48-.24-.72a.75.75 0 0 0-.59-.25.8.8 0 0 0-.6.24c-.15.16-.23.4-.23.73 0 .34.08.6.24.77q.24.24.6.24Zm.15 4.44c.4 0 .74-.07 1-.22.26-.13.39-.3.39-.52 0-.19-.09-.31-.25-.38-.15-.06-.38-.1-.68-.1h-.62a4.4 4.4 0 0 1-.85-.07q-.33.3-.33.6 0 .345.36.51c.25.12.57.18.98.18m4.07-1.45v-6.03h1.46l.12.76h.05c.26-.24.54-.45.85-.63.3-.19.67-.28 1.08-.28.66 0 1.13.21 1.43.64.3.44.45 1.03.45 1.8v3.74h-1.8v-3.51c0-.44-.05-.74-.17-.9-.12-.17-.3-.25-.56-.25-.23 0-.43.05-.59.16-.16.1-.34.24-.53.43v4.07h-1.8Z"/><path fill="#1A1A1A" fill-rule="evenodd" d="m531.44 305.5.76-.76 4.56 4.56-4.56 4.57-.76-.76 3.93-3.8z" clip-rule="evenodd"/><rect width="158.26" height="41.85" x="396.38" y="288.38" stroke="#E8E8E8" stroke-width=".76" rx="2.66"/><path fill="#F4F4F4" d="M100.14 189.1c0-1.16.94-2.1 2.1-2.1h167.42a2.1 2.1 0 0 1 0 4.2H102.24a2.1 2.1 0 0 1-2.1-2.1m0 11.22c0-1.16.94-2.1 2.1-2.1h186.13a2.1 2.1 0 0 1 0 4.21H102.24a2.1 2.1 0 0 1-2.1-2.1Zm0 12.16c0-1.16.94-2.1 2.1-2.1h134.69a2.1 2.1 0 0 1 0 4.2H102.24a2.1 2.1 0 0 1-2.1-2.1m0 35.55c0-1.17.94-2.1 2.1-2.1H321.1a2.1 2.1 0 1 1 0 4.2H102.24a2.1 2.1 0 0 1-2.1-2.1m0 9.82c0-1.17.94-2.1 2.1-2.1h209.5a2.1 2.1 0 0 1 0 4.2h-209.5a2.1 2.1 0 0 1-2.1-2.1m0 9.82c0-1.17.94-2.1 2.1-2.1h214.19a2.1 2.1 0 0 1 0 4.2H102.24a2.1 2.1 0 0 1-2.1-2.1m0 9.82c0-1.17.94-2.1 2.1-2.1h214.19a2.1 2.1 0 0 1 0 4.2H102.24a2.1 2.1 0 0 1-2.1-2.1m0 9.81c0-1.16.94-2.1 2.1-2.1H302.4a2.1 2.1 0 1 1 0 4.21H102.24a2.1 2.1 0 0 1-2.1-2.1Zm0 9.83c0-1.16.94-2.1 2.1-2.1H302.4a2.1 2.1 0 1 1 0 4.2H102.24a2.1 2.1 0 0 1-2.1-2.1m0 9.82c0-1.16.94-2.1 2.1-2.1H302.4a2.1 2.1 0 0 1 0 4.2H102.24a2.1 2.1 0 0 1-2.1-2.1m0 9.82c0-1.16.94-2.1 2.1-2.1H302.4a2.1 2.1 0 1 1 0 4.2H102.24a2.1 2.1 0 0 1-2.1-2.1m0 23.85c0-1.16.94-2.1 2.1-2.1h92.6a2.1 2.1 0 1 1 0 4.2h-92.6a2.1 2.1 0 0 1-2.1-2.1m0 9.82c0-1.16.94-2.1 2.1-2.1h92.6a2.1 2.1 0 1 1 0 4.2h-92.6a2.1 2.1 0 0 1-2.1-2.1"/><g filter="url(#d)"><path fill="#fff" stroke="#05F" stroke-width=".61" d="M148.15 334.06H272.2v51.55H148.15z"/><path fill="#fff" d="M146 331.91h4.91v4.91H146v-4.9Z"/><path fill="#05F" d="M146 331.91v-.61h-.61v.61zm4.91 0h.62v-.61h-.62zm0 4.91v.62h.62v-.62zm-4.91 0h-.61v.62h.61zm0-4.3h4.91v-1.22H146v1.23Zm4.3-.6v4.9h1.23v-4.9zm.61 4.3H146v1.22h4.91v-1.23Zm-4.3.6v-4.9h-1.22v4.9z"/><path fill="#fff" d="M146 382.88h4.91v4.91H146v-4.9Z"/><path fill="#05F" d="M146 382.88v-.61h-.61v.61zm4.91 0h.62v-.61h-.62zm0 4.91v.62h.62v-.62zm-4.91 0h-.61v.62h.61zm0-4.3h4.91v-1.22H146v1.23Zm4.3-.6v4.9h1.23v-4.9zm.61 4.29H146v1.23h4.91zm-4.3.61v-4.9h-1.22v4.9z"/><path fill="#fff" d="M269.43 382.88h4.91v4.91h-4.91v-4.9Z"/><path fill="#05F" d="M269.43 382.88v-.61h-.61v.61zm4.91 0h.62v-.61h-.62zm0 4.91v.62h.62v-.62zm-4.91 0h-.61v.62h.61zm0-4.3h4.91v-1.22h-4.91v1.23Zm4.3-.6v4.9h1.23v-4.9zm.61 4.29h-4.91v1.23h4.91zm-4.3.61v-4.9h-1.22v4.9z"/><path fill="#fff" d="M269.43 331.91h4.91v4.91h-4.91v-4.9Z"/><path fill="#05F" d="M269.43 331.91v-.61h-.61v.61zm4.91 0h.62v-.61h-.62zm0 4.91v.62h.62v-.62zm-4.91 0h-.61v.62h.61zm0-4.3h4.91v-1.22h-4.91v1.23Zm4.3-.6v4.9h1.23v-4.9zm.61 4.3h-4.91v1.22h4.91v-1.23Zm-4.3.6v-4.9h-1.22v4.9z"/><path fill="#05F" d="M264.52 334.37a7.37 7.37 0 1 1 14.74 0 7.37 7.37 0 0 1-14.74 0"/><path fill="#fff" fill-rule="evenodd" d="m272.45 334.37 3.12 3.12-.56.56-3.12-3.11-3.12 3.11-.57-.56 3.12-3.12-3.12-3.12.57-.57 3.12 3.12 3.12-3.12.56.57z" clip-rule="evenodd"/></g><path stroke="#1A1A1A" stroke-width="1.19" d="M158.58 363.14c4.56-.42 19.67 1.16 29.43-6.17 2.89-2.52 6.5-5.67 1.45-8.2-5.05-2.51-10.82 4.42-12.98 9.46-1.54 3.59-3.16 13.23 6.94 13.23 2.56 0 8.36-4.4 10.82-8.32 2.45-3.9 4.6-11.84 5.31-14.36 2.89 3.78 5.77 10.08 8.66 17.01 2.95 7.1-5.05 6.3-7.22 4.41-2.16-1.89-3.17-4.28 7.22-13.86 4.03-4.03 5.04-5.67 6.48-7.56 1.45 5.04 3.46 10.4 10.38 10.9m6.25-6.29c3.61 6.3 5.03 33.25-13.72 28.2-18.75-5.03 26.68-37.8 26.68-37.8l-2.9 23.26c2.16-6.93 7.78-20.29 12.98-18.27 6.49 2.52 1.35 12.96 3.81 18.27 2.46 5.32 6.15 5.32 8.61 5.32"/><path fill="#FF5975" fill-rule="evenodd" d="M43.51 93.74a.98.98 0 0 1-1.38-1.38l2.07-2.07a.98.98 0 0 1 1.38 1.38zm-6.22-2.07a.98.98 0 0 1 1.38-1.38l2.07 2.07a.98.98 0 0 1-1.38 1.38zm4.83 4.84a.98.98 0 0 1 1.39-1.39l2.07 2.08a.98.98 0 0 1-1.38 1.38zm-4.83 2.07c.38.38 1 .38 1.38 0l2.07-2.07a.98.98 0 1 0-1.38-1.39l-2.07 2.08a.98.98 0 0 0 0 1.38m477 340.09a.98.98 0 0 1 1.38-1.38l2.07 2.07a.98.98 0 0 1-1.38 1.38zm4.84 4.83a.98.98 0 1 1 1.38-1.38l2.07 2.08a.98.98 0 1 1-1.38 1.38l-2.08-2.07Zm-4.84 2.08c.38.38 1 .38 1.38 0l2.07-2.07a.98.98 0 0 0-1.38-1.39l-2.07 2.08a.98.98 0 0 0 0 1.38m6.22-4.84a.98.98 0 0 1-1.38-1.38l2.07-2.07a.98.98 0 0 1 1.38 1.38z" clip-rule="evenodd"/><path fill="#FFB700" fill-rule="evenodd" d="M64.2 126.1a3.1 3.1 0 1 1-6.2 0 3.1 3.1 0 0 1 6.2 0m-4.65 0a1.55 1.55 0 1 0 3.1 0 1.55 1.55 0 0 0-3.1 0m518.11 88.62a3.1 3.1 0 1 1-6.2 0 3.1 3.1 0 0 1 6.2 0m-4.65 0a1.55 1.55 0 1 0 3.1 0 1.55 1.55 0 0 0-3.1 0" clip-rule="evenodd"/><path fill="#1A1A1A" fill-rule="evenodd" d="m92 293.22 9.8 5.84-2.48 1.67 2.6 3.57-2.48 1.67-2.6-3.58-2.48 1.67z" clip-rule="evenodd"/><path stroke="#05F" stroke-width=".46" d="M229.63 234.34h96.04v38.02h-96.04z"/><path fill="#fff" d="M228 232.71h3.71v3.72H228z"/><path fill="#05F" d="M228 232.71v-.46h-.46v.46zm3.71 0h.47v-.46h-.47zm0 3.72v.46h.47v-.46zm-3.71 0h-.46v.46h.46zm0-3.25h3.71v-.93H228zm3.25-.47v3.72h.93v-3.72zm.46 3.25H228v.93h3.71zm-3.25.47v-3.72h-.92v3.72z"/><path fill="#fff" d="M228 270.29h3.71V274H228z"/><path fill="#05F" d="M228 270.29v-.47h-.46v.47zm3.71 0h.47v-.47h-.47zm0 3.71v.46h.47V274zm-3.71 0h-.46v.46h.46zm0-3.25h3.71v-.93H228zm3.25-.46V274h.93v-3.71zm.46 3.25H228v.92h3.71zm-3.25.46v-3.71h-.92V274z"/><path fill="#fff" d="M275.29 270.29H279V274h-3.71z"/><path fill="#05F" d="M275.29 270.29v-.47h-.47v.47zm3.71 0h.46v-.47H279zm0 3.71v.46h.46V274zm-3.71 0h-.47v.46h.47zm0-3.25H279v-.93h-3.71zm3.25-.46V274h.92v-3.71zm.46 3.25h-3.71v.92H279zm-3.25.46v-3.71h-.93V274z"/><path fill="#fff" d="M275.29 232.71H279v3.72h-3.71z"/><path fill="#05F" d="M275.29 232.71v-.46h-.47v.46zm3.71 0h.46v-.46H279zm0 3.72v.46h.46v-.46zm-3.71 0h-.47v.46h.47zm0-3.25H279v-.93h-3.71zm3.25-.47v3.72h.92v-3.72zm.46 3.25h-3.71v.93H279zm-3.25.47v-3.72h-.93v3.72z"/><path fill="#fff" d="M323.57 252h3.72v3.71h-3.72z"/><path fill="#05F" d="M323.57 252v-.46h-.46v.46zm3.72 0h.46v-.46h-.46zm0 3.71v.47h.46v-.47zm-3.72 0h-.46v.47h.46zm0-3.25h3.72v-.92h-3.72zm3.25-.46v3.71h.93V252zm.47 3.25h-3.72v.93h3.72zm-3.25.46V252h-.93v3.71z"/><path fill="#fff" d="M228 252h3.71v3.71H228z"/><path fill="#05F" d="M228 252v-.46h-.46v.46zm3.71 0h.47v-.46h-.47zm0 3.71v.47h.47v-.47zm-3.71 0h-.46v.47h.46zm0-3.25h3.71v-.92H228zm3.25-.46v3.71h.93V252zm.46 3.25H228v.93h3.71zm-3.25.46V252h-.92v3.71z"/><path fill="#fff" d="M323.57 270.29h3.72V274h-3.72z"/><path fill="#05F" d="M323.57 270.29v-.47h-.46v.47zm3.72 0h.46v-.47h-.46zm0 3.71v.46h.46V274zm-3.72 0h-.46v.46h.46zm0-3.25h3.72v-.93h-3.72zm3.25-.46V274h.93v-3.71zm.47 3.25h-3.72v.92h3.72zm-3.25.46v-3.71h-.93V274z"/><path fill="#fff" d="M323.57 232.71h3.72v3.72h-3.72z"/><path fill="#05F" d="M323.57 232.71v-.46h-.46v.46zm3.72 0h.46v-.46h-.46zm0 3.72v.46h.46v-.46zm-3.72 0h-.46v.46h.46zm0-3.25h3.72v-.93h-3.72zm3.25-.47v3.72h.93v-3.72zm.47 3.25h-3.72v.93h3.72zm-3.25.47v-3.72h-.93v3.72z"/><path fill="#F23030" fill-rule="evenodd" d="M310.82 236.82c-3.92.91-7.74 2.4-10.62 3.84a65 65 0 0 0-4.56 2.46c.54 2.01.62 4.33.57 6.62a13.7 13.7 0 0 1-2.35 6.63 7.1 7.1 0 0 1-2.73 2.47c-1.1.5-2.34.56-3.66-.07-1.45-.69-1.85-2.3-1.85-3.79 0-1.5.4-3.08.8-4 1.57-3.51 4.77-6.19 8.12-8.28a6.85 6.85 0 0 0-2.04-3.17 7.55 7.55 0 0 0-4.51-1.59c-4.14-.27-8.44.83-12.3 2.83 5.29 3.68 6.87 10.85 7.03 16.94.1 3.23-.7 6.58-2.49 9.15a9.95 9.95 0 0 1-8.44 4.37c-2.4.02-4.23-1.24-5.6-2.94a18.4 18.4 0 0 1-2.7-4.98 18.9 18.9 0 0 1-5.97 4.3c-2.48 1.1-5.26 1.6-7.88.79-1.7-.53-2.79-1.82-3.42-3.45a14.7 14.7 0 0 1-.78-5.6c.1-4 1.26-8.26 2.36-10.23a21.56 21.56 0 0 1 9.1-8.53c-1.03-.3-2.11-.51-3.26-.6-10-.82-19.08 2.9-22.88 12.55a.46.46 0 1 1-.87-.34c4-10.14 13.55-13.98 23.82-13.14 1.58.13 3.05.46 4.4.95a20.47 20.47 0 0 1 13.72-1.05c1.08.3 2.06.73 2.95 1.24 4.11-2.23 8.76-3.48 13.27-3.18 2.18.14 3.83.78 5.05 1.8a7.7 7.7 0 0 1 2.25 3.38 67 67 0 0 1 4.44-2.38 51.4 51.4 0 0 1 10.82-3.9c4-.92 8.15-1.27 11.6-.32.79.2 1.38.72 1.82 1.3s.75 1.26.95 1.87a.46.46 0 1 1-.88.3 5.7 5.7 0 0 0-.81-1.61 2.5 2.5 0 0 0-1.32-.97c-3.24-.89-7.22-.58-11.15.33m-36.99 3.92c-.7-.36-1.44-.66-2.25-.89a19.4 19.4 0 0 0-12.25.67c3.13 1.48 5.49 3.9 6.87 6.77 2.05-2.56 4.69-4.8 7.63-6.55m-8.28 7.38a13.45 13.45 0 0 0-7.41-7.1c-3.98 1.8-7.41 4.8-9.53 8.56-1.01 1.8-2.14 5.9-2.24 9.79a13.8 13.8 0 0 0 .72 5.24c.56 1.45 1.47 2.48 2.82 2.9 2.34.72 4.88.3 7.23-.75a17.9 17.9 0 0 0 5.98-4.43l.01-.01-.27-.84c-1.39-4.35-.54-8.47 1.91-12.24.25-.38.51-.75.78-1.12m-1.72 13.34-.09-.26c-1.29-4.05-.52-7.88 1.8-11.45l.41-.6c1.33 3.9.8 8.44-2.12 12.31m.36 1.05a14.14 14.14 0 0 0 2.43-14.26 27.5 27.5 0 0 1 8.14-6.98c5.21 3.32 6.87 10.26 7.04 16.46.08 3.08-.68 6.23-2.33 8.6a9.02 9.02 0 0 1-7.68 3.98c-2.04 0-3.62-1.04-4.88-2.6a18.3 18.3 0 0 1-2.73-5.2Zm30.62-18.88c-3.2 2.03-6.12 4.54-7.53 7.72a9.8 9.8 0 0 0-.73 3.63c0 1.4.39 2.5 1.32 2.95 1.06.51 2.02.46 2.87.07a6.2 6.2 0 0 0 2.35-2.16 12.8 12.8 0 0 0 2.2-6.12c.04-2.17-.04-4.27-.48-6.1Z" clip-rule="evenodd"/><path stroke="#05F" stroke-width=".46" d="M124.63 201.34h44.04v24.02h-44.04z"/><path fill="#fff" d="M123 199.71h3.71v3.72H123z"/><path fill="#05F" d="M123 199.71v-.46h-.46v.46zm3.71 0h.47v-.46h-.47zm0 3.72v.46h.47v-.46zm-3.71 0h-.46v.46h.46zm0-3.25h3.71v-.93H123zm3.25-.47v3.72h.93v-3.72zm.46 3.25H123v.93h3.71zm-3.25.47v-3.72h-.92v3.72z"/><path fill="#fff" d="M123 223.29h3.71V227H123z"/><path fill="#05F" d="M123 223.29v-.47h-.46v.47zm3.71 0h.47v-.47h-.47zm0 3.71v.46h.47V227zm-3.71 0h-.46v.46h.46zm0-3.25h3.71v-.93H123zm3.25-.46V227h.93v-3.71zm.46 3.25H123v.92h3.71zm-3.25.46v-3.71h-.92V227z"/><path fill="#fff" d="M145.29 223.29H149V227h-3.71z"/><path fill="#05F" d="M145.29 223.29v-.47h-.47v.47zm3.71 0h.46v-.47H149zm0 3.71v.46h.46V227zm-3.71 0h-.47v.46h.47zm0-3.25H149v-.93h-3.71zm3.25-.46V227h.92v-3.71zm.46 3.25h-3.71v.92H149zm-3.25.46v-3.71h-.93V227z"/><path fill="#fff" d="M145.29 199.71H149v3.72h-3.71z"/><path fill="#05F" d="M145.29 199.71v-.46h-.47v.46zm3.71 0h.46v-.46H149zm0 3.72v.46h.46v-.46zm-3.71 0h-.47v.46h.47zm0-3.25H149v-.93h-3.71zm3.25-.47v3.72h.92v-3.72zm.46 3.25h-3.71v.93H149zm-3.25.47v-3.72h-.93v3.72z"/><path fill="#fff" d="M166.57 212h3.72v3.71h-3.72z"/><path fill="#05F" d="M166.57 212v-.46h-.46v.46zm3.72 0h.46v-.46h-.46zm0 3.71v.47h.46v-.47zm-3.72 0h-.46v.47h.46zm0-3.25h3.72v-.92h-3.72zm3.25-.46v3.71h.93V212zm.47 3.25h-3.72v.93h3.72zm-3.25.46V212h-.93v3.71z"/><path fill="#fff" d="M123 212h3.71v3.71H123z"/><path fill="#05F" d="M123 212v-.46h-.46v.46zm3.71 0h.47v-.46h-.47zm0 3.71v.47h.47v-.47zm-3.71 0h-.46v.47h.46zm0-3.25h3.71v-.92H123zm3.25-.46v3.71h.93V212zm.46 3.25H123v.93h3.71zm-3.25.46V212h-.92v3.71z"/><path fill="#fff" d="M166.57 223.29h3.72V227h-3.72z"/><path fill="#05F" d="M166.57 223.29v-.47h-.46v.47zm3.72 0h.46v-.47h-.46zm0 3.71v.46h.46V227zm-3.72 0h-.46v.46h.46zm0-3.25h3.72v-.93h-3.72zm3.25-.46V227h.93v-3.71zm.47 3.25h-3.72v.92h3.72zm-3.25.46v-3.71h-.93V227z"/><path fill="#fff" d="M166.57 199.71h3.72v3.72h-3.72z"/><path fill="#05F" d="M166.57 199.71v-.46h-.46v.46zm3.72 0h.46v-.46h-.46zm0 3.72v.46h.46v-.46zm-3.72 0h-.46v.46h.46zm0-3.25h3.72v-.93h-3.72zm3.25-.47v3.72h.93v-3.72zm.47 3.25h-3.72v.93h3.72zm-3.25.47v-3.72h-.93v3.72z"/><path fill="#333" d="M137.2 209.5c-.02.57-.03 1.14-.03 1.73v4.14l.03 1.73 1.24.15v.55h-3.8v-.55l1.24-.15c.02-.56.03-1.13.03-1.7v-1.89h-4.38v1.87c0 .58 0 1.16.02 1.72l1.25.15v.55H129v-.55l1.24-.15.02-1.7v-4.16c0-.57 0-1.15-.02-1.74l-1.24-.14v-.55h3.8v.55l-1.25.14-.02 1.69v1.69h4.38v-1.68c0-.57-.01-1.13-.03-1.7l-1.23-.14v-.55h3.79v.55zm6.15 4.47c.32 0 .54-.07.65-.2.1-.14.16-.3.16-.5 0-.19-.04-.37-.13-.54a1.4 1.4 0 0 0-.3-.47 1.4 1.4 0 0 0-1.02-.44 1.63 1.63 0 0 0-1.15.5c-.16.17-.3.39-.43.67-.12.26-.2.6-.23.98zm-2.47.58c.01.83.22 1.47.62 1.92.39.45.9.67 1.55.67a2 2 0 0 0 1.08-.27c.29-.18.55-.41.8-.7l.31.26a2.8 2.8 0 0 1-1 1.15c-.43.28-.96.42-1.58.42a3.2 3.2 0 0 1-1.23-.23 2.6 2.6 0 0 1-.94-.66c-.26-.3-.47-.65-.6-1.06a4.18 4.18 0 0 1 .68-3.88c.28-.3.62-.54 1-.72a2.87 2.87 0 0 1 2.17-.08 2.21 2.21 0 0 1 1.33 1.33 2.8 2.8 0 0 1 .18 1.51 3 3 0 0 1-.07.34zm8.8 2.76v.49h-3.3v-.49l1.06-.18.01-1.08.01-1.07v-5.77l-1.1-.14v-.47l2.1-.6.19.1-.06 1.92v6.03l.03 1.08 1.06.19Zm4.26 0v.49h-3.3v-.49l1.06-.18v-1.08c.02-.36.02-.72.02-1.07v-5.77l-1.1-.14v-.47l2.1-.6.19.1-.06 1.92v6.03l.03 1.08 1.06.19Zm4.3-5.49c-.6 0-1.04.24-1.36.72a3.8 3.8 0 0 0-.47 2.09c0 .9.16 1.6.47 2.07.32.46.77.7 1.36.7.58 0 1.03-.24 1.34-.7.32-.48.47-1.17.47-2.07 0-.92-.15-1.61-.47-2.09a1.51 1.51 0 0 0-1.34-.72m0-.62c.39 0 .76.08 1.13.23.38.14.7.36 1 .66.28.28.51.64.7 1.07.17.42.26.91.26 1.47 0 .55-.09 1.04-.27 1.46a2.9 2.9 0 0 1-1.7 1.7 3.09 3.09 0 0 1-3.26-.64 3.34 3.34 0 0 1-.95-2.52c0-.56.08-1.05.25-1.47.18-.43.42-.79.7-1.07.3-.3.63-.52 1-.66.37-.16.75-.23 1.14-.23m5.9 6.8a.88.88 0 0 1-.87-.87c0-.24.08-.44.25-.6a.82.82 0 0 1 .62-.28c.24 0 .44.1.6.27.17.17.26.37.26.6 0 .24-.09.44-.25.63a.8.8 0 0 1-.61.25m0-9.4c.23 0 .42.07.55.2.14.14.22.36.22.65 0 .25-.03.68-.1 1.3l-.24 2.32-.19 1.83h-.5l-.17-1.83c-.1-.94-.18-1.72-.26-2.33-.06-.6-.09-1.04-.09-1.29 0-.3.07-.5.21-.64a.8.8 0 0 1 .57-.2Z"/><defs><clipPath id="b"><path fill="#fff" d="M295.15 129.55h64.28v18.91h-64.28z"/></clipPath><clipPath id="c"><path fill="#fff" d="M81.56 129.55h41.59v18.91H81.56z"/></clipPath><filter id="a" width="294.89" height="31.89" x="73.05" y="123.06" color-interpolation-filters="sRGB" filterUnits="userSpaceOnUse"><feFlood flood-opacity="0" result="BackgroundImageFix"/><feColorMatrix in="SourceAlpha" result="hardAlpha" values="0 0 0 0 0 0 0 0 0 0 0 0 0 0 0 0 0 0 127 0"/><feOffset/><feGaussianBlur stdDeviation=".47"/><feColorMatrix values="0 0 0 0 0.101961 0 0 0 0 0.101961 0 0 0 0 0.101961 0 0 0 0.2 0"/><feBlend in2="BackgroundImageFix" result="effect1_dropShadow"/><feBlend in="SourceGraphic" in2="effect1_dropShadow" result="shape"/></filter><filter id="d" width="181.26" height="109" x="122" y="303" color-interpolation-filters="sRGB" filterUnits="userSpaceOnUse"><feFlood flood-opacity="0" result="BackgroundImageFix"/><feColorMatrix in="SourceAlpha" result="hardAlpha" values="0 0 0 0 0 0 0 0 0 0 0 0 0 0 0 0 0 0 127 0"/><feOffset/><feGaussianBlur stdDeviation="12"/><feColorMatrix values="0 0 0 0 0.101961 0 0 0 0 0.101961 0 0 0 0 0.101961 0 0 0 0.2 0"/><feBlend in2="BackgroundImageFix" result="effect1_dropShadow"/><feBlend in="SourceGraphic" in2="effect1_dropShadow" result="shape"/></filter></defs></svg>